<?xml version="1.0" encoding="utf-8"?>
<!-- Generator: Adobe Illustrator 19.0.0, SVG Export Plug-In . SVG Version: 6.00 Build 0)  -->
<svg version="1.1" id="Layer_1" xmlns="http://www.w3.org/2000/svg" xmlns:xlink="http://www.w3.org/1999/xlink" x="0px" y="0px"
	 viewBox="0 0 96 96" style="enable-background:new 0 0 96 96;" xml:space="preserve">
<g id="XMLID_1_">
	<path fill="#FFFFFF" id="XMLID_5_" d="M75.5,73.8c-0.2-8.7-9-16.2-21.1-18.1v-4.4c1.6-1.5,2.7-3.9,3.5-5.9c1.1-0.5,2-1.7,2.6-3.3
		c0.8-2.2,0.5-4.3-0.7-5.3c0.1-0.8,0.1-1.6,0-2.3c-0.3-2.1,0.2-3.4,0.6-4.4c0.3-0.9,0.7-1.9,0.3-3.1c-1.4-4.1-5.6-6.4-11.7-6.4
		l-0.9,0c-4.2,0.2-5.5,1.9-6.4,3.6l-0.2,0.5c-5.5,0.5-5.5,5.1-5.4,8.8l0,1.2c0,0.7,0,1.4,0.1,2.1c-1.4,1-1.6,3.3-0.6,5.6
		c0.6,1.3,1.5,2.4,2.4,2.9c0.8,2.2,2,4.8,3.8,6.4v4.2C29.6,57.6,20.7,65,20.5,73.8l0,1.7h55.1L75.5,73.8z M23.9,72.3
		c1.3-6.8,9.2-12.4,19.8-13.6l1.4-0.2v-8.6l-0.7-0.5c-1.3-0.9-2.6-3.1-3.5-6l-0.3-0.9l-1-0.2c-0.2-0.1-0.7-0.5-1.1-1.4
		c-0.2-0.5-0.3-1-0.4-1.3l1.7,0.5l-0.3-2.4c-0.1-1.1-0.2-2.1-0.2-3.1l0-1.2c0-4.3,0.2-5.3,2.5-5.5c1.8-0.2,2.4-1.5,2.8-2.2
		c0.5-0.9,0.9-1.8,3.6-1.9l0.7,0c2.7,0,7.4,0.5,8.6,4.1c0,0.1-0.2,0.6-0.3,0.9c-0.5,1.2-1.2,3-0.8,6c0.1,0.6,0,1.4-0.1,2.2l-0.3,2.6
		l1.4-0.2c0,0.3,0,0.9-0.2,1.5c-0.3,0.9-0.8,1.4-0.8,1.5h-1.2l-0.4,1.1c-0.9,2.8-2.1,4.8-3.3,5.7l-0.6,0.5v8.8l1.4,0.2
		C63,60,70.8,65.6,72.1,72.3L23.9,72.3L23.9,72.3z"/>
</g>
</svg>
